<?xml version="1.0" standalone="no"?>
<!DOCTYPE svg PUBLIC "-//W3C//DTD SVG 20010904//EN" "http://www.w3.org/TR/2001/REC-SVG-20010904/DTD/svg10.dtd">
<!-- Created using Krita: http://krita.org -->
<svg xmlns="http://www.w3.org/2000/svg" 
    xmlns:xlink="http://www.w3.org/1999/xlink"
    xmlns:krita="http://krita.org/namespaces/svg/krita"
    xmlns:sodipodi="http://sodipodi.sourceforge.net/DTD/sodipodi-0.dtd"
    width="147.456pt"
    height="147.456pt"
    viewBox="0 0 147.456 147.456">
<defs/>
<g id="group0" transform="matrix(1.84504504288034 0 0 1.8450450842019 0 0)" fill="none">
  <rect id="shape0" transform="matrix(1.71257142857143 0 0 1.42714285714286 0 0)" fill="#c9c9ba" width="46.6666679214734" height="55.9999999465408"/>
  <rect id="shape1" transform="matrix(1.71257142857143 0 0 1.42714285714286 6.56485821733023 7.13571424756731)" fill="#98a5a8" width="39" height="12"/>
  <rect id="shape2" transform="matrix(1.71257142857143 0 0 1.42714285714286 57.9420010744731 45.6685713904245)" fill="#f29c1f" width="9" height="20"/>
  <rect id="shape3" transform="matrix(1.71257142857143 0 0 1.42714285714286 6.56485821733023 29.969999961853)" fill="#575c55" width="8" height="9"/>
  <rect id="shape4" transform="matrix(1.71257142857143 0 0 1.42714285714286 23.6905725030445 29.969999961853)" fill="#575c55" width="8" height="9"/>
  <rect id="shape5" transform="matrix(1.71257142857143 0 0 1.42714285714286 40.8162867887588 29.969999961853)" fill="#575c55" width="8" height="9"/>
  <rect id="shape6" transform="matrix(1.71257142857143 0 0 1.42714285714286 57.9420010744731 29.969999961853)" fill="#fffef9" width="9" height="9"/>
  <rect id="shape7" transform="matrix(1.71257142857143 0 0 1.42714285714286 6.56485821733023 45.6685713904245)" fill="#575c55" width="8" height="9"/>
  <rect id="shape8" transform="matrix(1.71257142857143 0 0 1.42714285714286 23.6905725030445 45.6685713904245)" fill="#575c55" width="8" height="9"/>
  <rect id="shape9" transform="matrix(1.71257142857143 0 0 1.42714285714286 40.8162867887588 45.6685713904245)" fill="#575c55" width="8" height="9"/>
  <rect id="shape10" transform="matrix(1.71257142857143 0 0 1.42714285714286 6.56485821733023 61.3671428189959)" fill="#575c55" width="8" height="9"/>
  <rect id="shape11" transform="matrix(1.71257142857143 0 0 1.42714285714286 23.6905725030445 61.3671428189959)" fill="#575c55" width="8" height="9"/>
  <rect id="shape12" transform="matrix(1.71257142857143 0 0 1.42714285714286 40.8162867887588 61.3671428189959)" fill="#575c55" width="8" height="9"/>
  <path id="shape13" transform="matrix(1.71257142857143 0 0 1.42714285714286 56.2290015030445 10.7053553189959)" fill="#49686d" d="M2.38225 0.07575C2.13825 -0.02525 1.86225 -0.02525 1.61825 0.07575C1.49525 0.12675 1.38525 0.19975 1.29225 0.29275L0.29325 1.29175C-0.09775 1.68275 -0.09775 2.31475 0.29325 2.70575C0.48825 2.90075 0.74425 2.99875 1.00025 2.99875L1.00025 5.99875C1.00025 6.55175 1.44825 6.99875 2.00025 6.99875C2.55225 6.99875 3.00025 6.55175 3.00025 5.99875L3.00025 0.99875C3.00025 0.86875 2.97325 0.73875 2.92325 0.61675C2.82225 0.37175 2.62725 0.17675 2.38225 0.07575Z"/>
  <path id="shape14" transform="matrix(1.71257142857143 0 0 1.42714285714286 63.0792872173302 10.7053553189959)" fill="#49686d" d="M2.92325 0.61675C2.82225 0.37175 2.62725 0.17675 2.38225 0.07575C2.13825 -0.02525 1.86225 -0.02525 1.61825 0.07575C1.49525 0.12675 1.38525 0.19975 1.29225 0.29275L0.29325 1.29175C-0.09775 1.68275 -0.09775 2.31475 0.29325 2.70575C0.48825 2.90075 0.74425 2.99875 1.00025 2.99875L1.00025 5.99875C1.00025 6.55175 1.44825 6.99875 2.00025 6.99875C2.55225 6.99875 3.00025 6.55175 3.00025 5.99875L3.00025 0.99875C3.00025 0.86875 2.97325 0.73875 2.92325 0.61675Z"/>
  <path id="shape15" transform="matrix(1.00000001915869 0 0 1.00000003498179 43.9296249284543 62.902124827824)" fill="#000000" fill-rule="evenodd" d="M6.84375 0.48437L6.84375 2.48437C6.33333 2.25521 5.82813 2.08073 5.32813 1.96094C4.82813 1.84115 4.35938 1.78125 3.92188 1.78125C3.33854 1.78125 2.90885 1.86198 2.63281 2.02344C2.35677 2.1849 2.21875 2.43229 2.21875 2.76562C2.21875 3.02604 2.3125 3.22656 2.5 3.36719C2.6875 3.50781 3.02604 3.63021 3.51563 3.73437L4.5625 3.9375C5.61458 4.14583 6.36198 4.46615 6.80469 4.89844C7.2474 5.33073 7.46875 5.94792 7.46875 6.75C7.46875 7.79167 7.15885 8.56771 6.53906 9.07813C5.91927 9.58854 4.97396 9.84375 3.70313 9.84375C3.09896 9.84375 2.49479 9.78646 1.89063 9.67188C1.28646 9.55729 0.68229 9.38542 0.07813 9.15625L0.07813 7.09375C0.68229 7.41667 1.26823 7.65885 1.83594 7.82031C2.40365 7.98177 2.94792 8.0625 3.46875 8.0625C4 8.0625 4.40885 7.97396 4.69531 7.79687C4.98177 7.61979 5.125 7.36979 5.125 7.04687C5.125 6.74479 5.02865 6.51302 4.83594 6.35156C4.64323 6.1901 4.25521 6.04687 3.67188 5.92187L2.73438 5.71875C1.78646 5.51042 1.09375 5.1849 0.65625 4.74219C0.21875 4.29948 0 3.70312 0 2.95312C0 2.00521 0.30469 1.27604 0.91406 0.76562C1.52344 0.25521 2.39583 0 3.53125 0C4.05208 0 4.58854 0.04167 5.14063 0.125C5.69271 0.20833 6.26042 0.32812 6.84375 0.48437"/>
  <path id="shape16" transform="matrix(1.00000001915869 0 0 1.00000003498179 26.3527499227665 62.902124827824)" fill="#000000" fill-rule="evenodd" d="M8.0625 9.14063C7.61458 9.36979 7.14844 9.54427 6.66406 9.66406C6.17969 9.78385 5.67188 9.84375 5.14063 9.84375C3.56771 9.84375 2.31771 9.40104 1.39062 8.51562C0.463545 7.63021 0 6.43229 0 4.92187C0 3.41146 0.463545 2.21354 1.39062 1.32812C2.31771 0.44271 3.56771 0 5.14063 0C5.67188 0 6.17969 0.0599 6.66406 0.17969C7.14844 0.29948 7.61458 0.47917 8.0625 0.71875L8.0625 2.67187C7.61458 2.35937 7.16927 2.13281 6.72656 1.99219C6.28385 1.85156 5.82292 1.78125 5.34375 1.78125C4.46875 1.78125 3.78125 2.0599 3.28125 2.61719C2.78125 3.17448 2.53125 3.94271 2.53125 4.92187C2.53125 5.90104 2.78125 6.66927 3.28125 7.22656C3.78125 7.78385 4.46875 8.0625 5.34375 8.0625C5.82292 8.0625 6.28385 7.99219 6.72656 7.85156C7.16927 7.71094 7.61458 7.48437 8.0625 7.17187L8.0625 9.14063"/>
  <path id="shape17" transform="matrix(1.00000001915869 0 0 1.00000003498179 11.8774374765006 63.0818073341096)" fill="#000000" fill-rule="evenodd" d="M0 0L2.45313 0L2.45313 9.48438L0 9.48438L0 0"/>
  <path id="shape18" transform="matrix(1.00000001915869 0 0 1.00000003498179 43.5848124163304 47.2418073341096)" fill="#000000" fill-rule="evenodd" d="M0 0L8.73438 0L8.73438 1.85938L5.59375 1.85938L5.59375 9.48438L3.15625 9.48438L3.15625 1.85938L0 1.85938L0 0"/>
  <path id="shape19" transform="matrix(1.00000001915869 0 0 1.00000003498179 27.3048124354891 47.2418073341096)" fill="#000000" fill-rule="evenodd" d="M0 0L6.59375 0L6.59375 1.85938L2.45313 1.85938L2.45313 3.625L6.35938 3.625L6.35938 5.46875L2.45313 5.46875L2.45313 7.64063L6.73438 7.64063L6.73438 9.48438L0 9.48438L0 0"/>
  <path id="shape20" transform="matrix(1.00000001915869 0 0 1.00000003498179 10.0248124354891 47.2418073341096)" fill="#000000" fill-rule="evenodd" d="M0 0L2.45313 0L2.45313 7.64063L6.73438 7.64063L6.73438 9.48438L0 9.48438L0 0"/>
  <path id="shape21" transform="matrix(1.00000001915869 0 0 1.00000003498179 43.5579999185755 31.6898073341096)" fill="#000000" fill-rule="evenodd" d="M0 0L2.45313 0L2.45313 3.625L6.0625 3.625L6.0625 0L8.5 0L8.5 9.48438L6.0625 9.48438L6.0625 5.46875L2.45313 5.46875L2.45313 9.48438L0 9.48438L0 0"/>
  <path id="shape22" transform="matrix(1.00000001915869 0 0 1.00000003498179 26.1608124163304 31.6898073341096)" fill="#000000" fill-rule="evenodd" d="M0 0L8.73438 0L8.73438 1.85938L5.59375 1.85938L5.59375 9.48438L3.15625 9.48438L3.15625 1.85938L0 1.85938L0 0"/>
  <path id="shape23" transform="translate(8.27925, 31.6898075)" fill="#000000" fill-rule="evenodd" d="M6.875 7.75L3.0625 7.75L2.45313 9.48438L0 9.48438L3.51563 0L6.42188 0L9.9375 9.48438L7.48438 9.48438L6.875 7.75M3.67188 6L6.26563 6L4.96875 2.23438L3.67188 6"/>
 </g><g id="group1" transform="matrix(1.71257154153076 0 0 1.42714295127563 79.9200034403802 79.9200034403802)" fill="none"/><g id="group2" transform="matrix(1.71257154153076 0 0 1.42714295127563 79.9200034403802 79.9200034403802)" fill="none"/><g id="group3" transform="matrix(1.71257154153076 0 0 1.42714295127563 79.9200034403802 79.9200034403802)" fill="none"/><g id="group4" transform="matrix(1.71257154153076 0 0 1.42714295127563 79.9200034403802 79.9200034403802)" fill="none"/><g id="group5" transform="matrix(1.71257154153076 0 0 1.42714295127563 79.9200034403802 79.9200034403802)" fill="none"/><g id="group6" transform="matrix(1.71257154153076 0 0 1.42714295127563 79.9200034403802 79.9200034403802)" fill="none"/><g id="group7" transform="matrix(1.71257154153076 0 0 1.42714295127563 79.9200034403802 79.9200034403802)" fill="none"/><g id="group8" transform="matrix(1.71257154153076 0 0 1.42714295127563 79.9200034403802 79.9200034403802)" fill="none"/><g id="group9" transform="matrix(1.71257154153076 0 0 1.42714295127563 79.9200034403802 79.9200034403802)" fill="none"/><g id="group10" transform="matrix(1.71257154153076 0 0 1.42714295127563 79.9200034403802 79.9200034403802)" fill="none"/><g id="group11" transform="matrix(1.71257154153076 0 0 1.42714295127563 79.9200034403802 79.9200034403802)" fill="none"/><g id="group12" transform="matrix(1.71257154153076 0 0 1.42714295127563 79.9200034403802 79.9200034403802)" fill="none"/><g id="group13" transform="matrix(1.71257154153076 0 0 1.42714295127563 79.9200034403802 79.9200034403802)" fill="none"/><g id="group14" transform="matrix(1.71257154153076 0 0 1.42714295127563 79.9200034403802 79.9200034403802)" fill="none"/><g id="group15" transform="matrix(1.71257154153076 0 0 1.42714295127563 79.9200034403802 79.9200034403802)" fill="none"/>
</svg>
